<svg width="355" height="86" viewBox="0 0 355 86" fill="none" xmlns="http://www.w3.org/2000/svg">
<path d="M78.88 1.59999L47.56 85H31.72L0.28 1.59999H14.92L39.64 70.96L64.48 1.59999H78.88ZM128.36 85.84C120.6 85.84 113.44 84.04 106.88 80.44C100.4 76.76 95.2403 71.68 91.4003 65.2C87.6403 58.64 85.7603 51.28 85.7603 43.12C85.7603 34.96 87.6403 27.64 91.4003 21.16C95.2403 14.68 100.4 9.64 106.88 6.03999C113.44 2.35999 120.6 0.519993 128.36 0.519993C136.2 0.519993 143.36 2.35999 149.84 6.03999C156.4 9.64 161.56 14.68 165.32 21.16C169.08 27.64 170.96 34.96 170.96 43.12C170.96 51.28 169.08 58.64 165.32 65.2C161.56 71.68 156.4 76.76 149.84 80.44C143.36 84.04 136.2 85.84 128.36 85.84ZM128.36 73.96C133.88 73.96 138.8 72.72 143.12 70.24C147.44 67.68 150.8 64.08 153.2 59.44C155.68 54.72 156.92 49.28 156.92 43.12C156.92 36.96 155.68 31.56 153.2 26.92C150.8 22.28 147.44 18.72 143.12 16.24C138.8 13.76 133.88 12.52 128.36 12.52C122.84 12.52 117.92 13.76 113.6 16.24C109.28 18.72 105.88 22.28 103.4 26.92C101 31.56 99.8003 36.96 99.8003 43.12C99.8003 49.28 101 54.72 103.4 59.44C105.88 64.08 109.28 67.68 113.6 70.24C117.92 72.72 122.84 73.96 128.36 73.96ZM246.222 1.59999L218.622 54.76V85H204.942V54.76L177.222 1.59999H192.462L211.782 42.52L231.102 1.59999H246.222Z" fill="white"/>
<path d="M307.358 67.96H272.438L266.438 85H252.158L282.038 1.48H297.878L327.758 85H313.358L307.358 67.96ZM303.518 56.8L289.958 18.04L276.278 56.8H303.518ZM354.43 1.59999V85H340.75V1.59999H354.43Z" fill="white"/>
<path d="M307.358 67.96H272.438L266.438 85H252.158L282.038 1.48H297.878L327.758 85H313.358L307.358 67.96ZM303.518 56.8L289.958 18.04L276.278 56.8H303.518ZM354.43 1.59999V85H340.75V1.59999H354.43Z" fill="#645ABF"/>
</svg>
